<svg width="110" height="46" viewBox="0 0 110 46" fill="none" xmlns="http://www.w3.org/2000/svg">
<g clip-path="url(#clip0_1485_2704)">
<g filter="url(#filter0_d_1485_2704)">
<mask id="path-1-inside-1_1485_2704" fill="white">
<path d="M108.33 22.1162L108.292 22.3021L107.143 23.0945L106.368 23.4788L105.541 23.8331L104.744 24.1355L103.403 24.5402L102.533 24.7307L101.692 24.8692L100.717 24.9998L99.4017 25.0027L98.3098 24.8575L97.1742 24.5485L95.8093 24.0377L92.6945 22.7246L90.617 22.0104L88.9245 21.5878L87.5433 21.3449L86.2057 21.2659L85.1275 21.3366L84.153 21.4672L82.9547 21.7458L81.912 22.1143L80.9431 22.5947L79.966 23.209L79.0025 24.0392L78.3667 24.7812L77.9464 25.5091L77.6736 26.4607L77.6328 27.1304L77.7339 27.674L78.1299 28.6651L78.7197 29.5602L78.9709 29.8439L79.5633 30.2552L80.4314 30.5485L81.5015 30.6117L82.3422 30.4732L83.0492 30.3268L83.6524 30.1205L84.4494 29.8181L85.574 29.4276L86.5566 29.1631L87.3973 29.0246L88.5055 28.9019L89.4719 28.9052L90.6156 29.0803L91.6175 29.3815L92.1143 29.599L92.8405 30.0183L93.7879 30.7732L94.4377 31.5643L94.9756 32.4294L95.2105 32.9809L95.0248 32.9431L94.5962 32.4876L94.2112 32.1961L92.8107 31.3875L91.757 31.0564L90.9326 30.9271L89.8326 30.9158L88.9918 31.0543L88.0911 31.2968L86.9884 31.7693L86.1532 32.2576L84.8267 32.8781L83.784 33.2466L82.7713 33.5631L81.8187 33.7757L80.7624 33.9283L79.5204 34.0431L77.8553 34.0522L75.9008 33.9636L73.5232 33.7694L71.4431 33.5389L69.9281 33.2881L68.2056 32.9175L65.3775 32.1859L63.7287 31.9271L63.0299 31.9396L62.241 32.1081L61.5778 32.4183L60.5925 33.1666L60.2186 33.5746L59.6783 34.5104L59.5337 35.1202L59.6048 35.7158L59.7878 36.2374L60.312 36.8866L60.9782 37.4099L61.445 37.6794L62.6762 38.1822L63.5743 38.4235L64.8 38.5766L65.9 38.5878L67.2977 38.5629L68.4196 38.656L69.2658 38.8673L69.6071 38.995L70.5407 39.5341L71.458 40.341L72.2335 41.2739L72.927 42.2289L72.9188 42.3628L71.5402 41.6362L70.4646 41.2231L69.3508 40.996L68.1989 40.9549L67.2544 41.0335L66.1981 41.1861L65.1117 41.3907L62.7151 41.948L61.5687 42.2566L60.9436 42.381L59.991 42.5935L57.8183 43.0028L56.8138 43.1854L54.701 43.4906L53.1315 43.6936L51.8076 43.8304L50.1344 43.9735L48.7067 44.0504L47.2273 44.0974L45.4284 44.0987L43.2064 43.9942L41.3938 43.7796L39.6413 43.461L38.1344 43.0762L36.7695 42.5655L36.1689 42.288L34.924 41.5693L33.6955 40.5827L32.9119 39.7837L32.8382 39.6718L33.3703 38.8699L34.1344 37.786L35.7553 34.9786L36.4023 34.9361L37.8517 34.9411L39.1975 34.8862L41.5695 34.7307L42.8115 34.6159L45.1918 34.3265L46.0325 34.188L47.037 34.0054L47.7139 33.911L47.8258 33.8369L46.5701 33.7359L45.1207 33.7309L44.2144 33.6235L43.6357 33.428L43.2207 33.1885L42.762 32.785L42.3934 32.2256L42.1449 31.4582L42.0519 30.7807L42.1746 30.089L42.3029 29.7471L42.603 29.2272L43.2089 28.5372L44.0523 27.915L44.6855 27.6567L45.2587 27.5024L46.3069 27.4837L47.3169 27.6509L50.0413 28.3226L52.0095 28.6271L54.237 29.0813L55.6264 29.1903L56.9203 29.1054L57.761 28.9669L58.6836 28.8064L58.4461 28.7386L57.3761 28.6754L56.4179 28.5381L55.6235 28.3568L54.9929 28.1313L53.9555 27.5324L53.5269 27.0769L53.2401 26.4955L53.139 25.9519L53.188 25.1483L53.5127 24.2266L54.0148 23.4767L54.7026 22.7646L55.3221 22.2905L56.0754 21.8242L56.9024 21.4699L57.8332 21.1754L58.8377 20.9928L60.1015 20.96L61.461 21.1209L62.916 21.4757L64.0734 21.8667L66.3502 22.8346L66.6395 22.9323L66.1509 22.5809L65.0397 21.8701L64.3654 21.4807L63.0605 20.866L61.6656 20.4072L60.4699 20.2022L59.318 20.161L58.3435 20.2916L57.3909 20.5041L56.8177 20.6584L56.2144 20.8647L55.1718 21.2332L54.1891 21.4977L53.2447 21.5763L52.524 21.5068L52.049 21.3712L51.0635 20.8023L50.228 19.9733L49.6383 19.0782L49.286 18.2509L49.2149 17.6553L49.2639 16.8518L49.4303 16.324L49.9406 15.4401L50.6583 14.6761L49.6375 15.1265L48.3847 15.8589L46.7662 16.8655L45.4615 17.568L44.6645 17.8703L43.8975 18.1207L42.9749 18.2813L42.0086 18.2779L40.9986 18.1107L40.2861 17.9073L39.2405 17.4423L38.4106 16.9632L37.4851 16.2902L37.2558 16.0884L37.4796 15.9404L38.2685 15.7719L39.1474 15.4475L39.8706 15.0333L40.6321 14.4331L41.7238 13.261L40.7548 13.7414L39.8459 14.1178L38.9151 14.4123L38.0963 14.6327L37.0399 14.7853L36.2292 14.8719L36.0299 14.6181L35.2653 13.0676L34.5362 11.8148L33.4522 10.2185L32.5812 9.0917L32.5075 8.97982L32.9933 8.49776L34.0086 7.69753L35.1495 7.03912L35.9465 6.73675L36.7135 6.48637L37.3686 6.31002L38.6406 6.14325L39.7188 6.07255L40.8707 6.11374L42.6833 6.32837L44.8071 6.72268L46.5077 7.01135L47.8153 7.14238L49.1829 7.16943L50.1573 7.03883L50.9462 6.87039L51.7651 6.64995L52.674 6.27355L53.8667 5.64509L54.8138 5.08277L56.0148 4.32039L57.2839 3.3201L58.3674 2.28195L59.5791 0.901919L59.6883 1.31161L59.6504 2.81476L59.4732 3.96022L59.1104 5.06783L58.8921 5.56569L58.2918 6.6055L57.4539 7.57752L55.7509 9.08981L54.1542 10.1783L53.3791 10.5626L52.7458 10.8209L53.3983 11.1282L54.4001 11.4294L55.5958 11.6344L57.119 11.7513L58.4647 11.6964L59.7367 11.5297L60.7412 11.3471L62.0514 10.9944L62.9903 10.566L63.9374 10.0037L65.0046 9.23338L66.0199 8.43315L67.2208 7.67076L68.1597 7.24237L69.2843 6.85182L69.9394 6.67548L70.7801 6.53698L71.9183 6.3623L73.4279 6.26332L74.8255 6.23838L76.5643 6.34113L78.0793 6.59194L79.2968 6.87894L80.6918 7.33772L81.6336 7.74284L83.6565 8.91078L84.6557 9.69564L85.5431 10.5545L85.8161 10.9201L85.7042 10.9942L83.6705 10.4439L81.5248 9.96763L79.1854 9.58745L77.8779 9.45642L76.3247 9.39153L75.1646 9.48427L74.3757 9.65271L73.7725 9.85901L72.9892 10.3772L72.2796 11.0074L71.8456 11.5194L71.4854 12.1433L71.2808 12.857L71.2319 13.6606L71.3985 14.45L71.759 15.1433L72.2532 15.8446L73.1105 16.7555L73.7248 17.2488L74.4809 17.616L75.2235 17.7674L75.9741 17.7849L76.9486 17.6543L77.9312 17.3898L78.5345 17.1835L79.3015 16.9331L80.0985 16.6308L81.2749 16.2702L82.2057 15.9757L82.8308 15.8513L83.6196 15.6829L84.8916 15.5161L86.3711 15.4691L87.8424 15.5561L89.3574 15.8069L90.9681 16.2515L92.1774 16.6724L93.6679 17.325L94.6835 17.8421L96.1358 18.6806L97.8394 19.8028L99.5347 21.0589L100.253 21.6121L101.342 22.2409L102.344 22.5421L103.354 22.7093L104.773 22.7663L105.8 22.6656L106.804 22.4831L107.429 22.3587L108.218 22.1903L108.33 22.1162Z"/>
</mask>
<path d="M108.33 22.1162L108.292 22.3021L107.143 23.0945L106.368 23.4788L105.541 23.8331L104.744 24.1355L103.403 24.5402L102.533 24.7307L101.692 24.8692L100.717 24.9998L99.4017 25.0027L98.3098 24.8575L97.1742 24.5485L95.8093 24.0377L92.6945 22.7246L90.617 22.0104L88.9245 21.5878L87.5433 21.3449L86.2057 21.2659L85.1275 21.3366L84.153 21.4672L82.9547 21.7458L81.912 22.1143L80.9431 22.5947L79.966 23.209L79.0025 24.0392L78.3667 24.7812L77.9464 25.5091L77.6736 26.4607L77.6328 27.1304L77.7339 27.674L78.1299 28.6651L78.7197 29.5602L78.9709 29.8439L79.5633 30.2552L80.4314 30.5485L81.5015 30.6117L82.3422 30.4732L83.0492 30.3268L83.6524 30.1205L84.4494 29.8181L85.574 29.4276L86.5566 29.1631L87.3973 29.0246L88.5055 28.9019L89.4719 28.9052L90.6156 29.0803L91.6175 29.3815L92.1143 29.599L92.8405 30.0183L93.7879 30.7732L94.4377 31.5643L94.9756 32.4294L95.2105 32.9809L95.0248 32.9431L94.5962 32.4876L94.2112 32.1961L92.8107 31.3875L91.757 31.0564L90.9326 30.9271L89.8326 30.9158L88.9918 31.0543L88.0911 31.2968L86.9884 31.7693L86.1532 32.2576L84.8267 32.8781L83.784 33.2466L82.7713 33.5631L81.8187 33.7757L80.7624 33.9283L79.5204 34.0431L77.8553 34.0522L75.9008 33.9636L73.5232 33.7694L71.4431 33.5389L69.9281 33.2881L68.2056 32.9175L65.3775 32.1859L63.7287 31.9271L63.0299 31.9396L62.241 32.1081L61.5778 32.4183L60.5925 33.1666L60.2186 33.5746L59.6783 34.5104L59.5337 35.1202L59.6048 35.7158L59.7878 36.2374L60.312 36.8866L60.9782 37.4099L61.445 37.6794L62.6762 38.1822L63.5743 38.4235L64.8 38.5766L65.9 38.5878L67.2977 38.5629L68.4196 38.656L69.2658 38.8673L69.6071 38.995L70.5407 39.5341L71.458 40.341L72.2335 41.2739L72.927 42.2289L72.9188 42.3628L71.5402 41.6362L70.4646 41.2231L69.3508 40.996L68.1989 40.9549L67.2544 41.0335L66.1981 41.1861L65.1117 41.3907L62.7151 41.948L61.5687 42.2566L60.9436 42.381L59.991 42.5935L57.8183 43.0028L56.8138 43.1854L54.701 43.4906L53.1315 43.6936L51.8076 43.8304L50.1344 43.9735L48.7067 44.0504L47.2273 44.0974L45.4284 44.0987L43.2064 43.9942L41.3938 43.7796L39.6413 43.461L38.1344 43.0762L36.7695 42.5655L36.1689 42.288L34.924 41.5693L33.6955 40.5827L32.9119 39.7837L32.8382 39.6718L33.3703 38.8699L34.1344 37.786L35.7553 34.9786L36.4023 34.9361L37.8517 34.9411L39.1975 34.8862L41.5695 34.7307L42.8115 34.6159L45.1918 34.3265L46.0325 34.188L47.037 34.0054L47.7139 33.911L47.8258 33.8369L46.5701 33.7359L45.1207 33.7309L44.2144 33.6235L43.6357 33.428L43.2207 33.1885L42.762 32.785L42.3934 32.2256L42.1449 31.4582L42.0519 30.7807L42.1746 30.089L42.3029 29.7471L42.603 29.2272L43.2089 28.5372L44.0523 27.915L44.6855 27.6567L45.2587 27.5024L46.3069 27.4837L47.3169 27.6509L50.0413 28.3226L52.0095 28.6271L54.237 29.0813L55.6264 29.1903L56.9203 29.1054L57.761 28.9669L58.6836 28.8064L58.4461 28.7386L57.3761 28.6754L56.4179 28.5381L55.6235 28.3568L54.9929 28.1313L53.9555 27.5324L53.5269 27.0769L53.2401 26.4955L53.139 25.9519L53.188 25.1483L53.5127 24.2266L54.0148 23.4767L54.7026 22.7646L55.3221 22.2905L56.0754 21.8242L56.9024 21.4699L57.8332 21.1754L58.8377 20.9928L60.1015 20.96L61.461 21.1209L62.916 21.4757L64.0734 21.8667L66.3502 22.8346L66.6395 22.9323L66.1509 22.5809L65.0397 21.8701L64.3654 21.4807L63.0605 20.866L61.6656 20.4072L60.4699 20.2022L59.318 20.161L58.3435 20.2916L57.3909 20.5041L56.8177 20.6584L56.2144 20.8647L55.1718 21.2332L54.1891 21.4977L53.2447 21.5763L52.524 21.5068L52.049 21.3712L51.0635 20.8023L50.228 19.9733L49.6383 19.0782L49.286 18.2509L49.2149 17.6553L49.2639 16.8518L49.4303 16.324L49.9406 15.4401L50.6583 14.6761L49.6375 15.1265L48.3847 15.8589L46.7662 16.8655L45.4615 17.568L44.6645 17.8703L43.8975 18.1207L42.9749 18.2813L42.0086 18.2779L40.9986 18.1107L40.2861 17.9073L39.2405 17.4423L38.4106 16.9632L37.4851 16.2902L37.2558 16.0884L37.4796 15.9404L38.2685 15.7719L39.1474 15.4475L39.8706 15.0333L40.6321 14.4331L41.7238 13.261L40.7548 13.7414L39.8459 14.1178L38.9151 14.4123L38.0963 14.6327L37.0399 14.7853L36.2292 14.8719L36.0299 14.6181L35.2653 13.0676L34.5362 11.8148L33.4522 10.2185L32.5812 9.0917L32.5075 8.97982L32.9933 8.49776L34.0086 7.69753L35.1495 7.03912L35.9465 6.73675L36.7135 6.48637L37.3686 6.31002L38.6406 6.14325L39.7188 6.07255L40.8707 6.11374L42.6833 6.32837L44.8071 6.72268L46.5077 7.01135L47.8153 7.14238L49.1829 7.16943L50.1573 7.03883L50.9462 6.87039L51.7651 6.64995L52.674 6.27355L53.8667 5.64509L54.8138 5.08277L56.0148 4.32039L57.2839 3.3201L58.3674 2.28195L59.5791 0.901919L59.6883 1.31161L59.6504 2.81476L59.4732 3.96022L59.1104 5.06783L58.8921 5.56569L58.2918 6.6055L57.4539 7.57752L55.7509 9.08981L54.1542 10.1783L53.3791 10.5626L52.7458 10.8209L53.3983 11.1282L54.4001 11.4294L55.5958 11.6344L57.119 11.7513L58.4647 11.6964L59.7367 11.5297L60.7412 11.3471L62.0514 10.9944L62.9903 10.566L63.9374 10.0037L65.0046 9.23338L66.0199 8.43315L67.2208 7.67076L68.1597 7.24237L69.2843 6.85182L69.9394 6.67548L70.7801 6.53698L71.9183 6.3623L73.4279 6.26332L74.8255 6.23838L76.5643 6.34113L78.0793 6.59194L79.2968 6.87894L80.6918 7.33772L81.6336 7.74284L83.6565 8.91078L84.6557 9.69564L85.5431 10.5545L85.8161 10.9201L85.7042 10.9942L83.6705 10.4439L81.5248 9.96763L79.1854 9.58745L77.8779 9.45642L76.3247 9.39153L75.1646 9.48427L74.3757 9.65271L73.7725 9.85901L72.9892 10.3772L72.2796 11.0074L71.8456 11.5194L71.4854 12.1433L71.2808 12.857L71.2319 13.6606L71.3985 14.45L71.759 15.1433L72.2532 15.8446L73.1105 16.7555L73.7248 17.2488L74.4809 17.616L75.2235 17.7674L75.9741 17.7849L76.9486 17.6543L77.9312 17.3898L78.5345 17.1835L79.3015 16.9331L80.0985 16.6308L81.2749 16.2702L82.2057 15.9757L82.8308 15.8513L83.6196 15.6829L84.8916 15.5161L86.3711 15.4691L87.8424 15.5561L89.3574 15.8069L90.9681 16.2515L92.1774 16.6724L93.6679 17.325L94.6835 17.8421L96.1358 18.6806L97.8394 19.8028L99.5347 21.0589L100.253 21.6121L101.342 22.2409L102.344 22.5421L103.354 22.7093L104.773 22.7663L105.8 22.6656L106.804 22.4831L107.429 22.3587L108.218 22.1903L108.33 22.1162Z" fill="url(#paint0_linear_1485_2704)" shape-rendering="crispEdges"/>
<path d="M108.33 22.1162L108.292 22.3021L107.143 23.0945L106.368 23.4788L105.541 23.8331L104.744 24.1355L103.403 24.5402L102.533 24.7307L101.692 24.8692L100.717 24.9998L99.4017 25.0027L98.3098 24.8575L97.1742 24.5485L95.8093 24.0377L92.6945 22.7246L90.617 22.0104L88.9245 21.5878L87.5433 21.3449L86.2057 21.2659L85.1275 21.3366L84.153 21.4672L82.9547 21.7458L81.912 22.1143L80.9431 22.5947L79.966 23.209L79.0025 24.0392L78.3667 24.7812L77.9464 25.5091L77.6736 26.4607L77.6328 27.1304L77.7339 27.674L78.1299 28.6651L78.7197 29.5602L78.9709 29.8439L79.5633 30.2552L80.4314 30.5485L81.5015 30.6117L82.3422 30.4732L83.0492 30.3268L83.6524 30.1205L84.4494 29.8181L85.574 29.4276L86.5566 29.1631L87.3973 29.0246L88.5055 28.9019L89.4719 28.9052L90.6156 29.0803L91.6175 29.3815L92.1143 29.599L92.8405 30.0183L93.7879 30.7732L94.4377 31.5643L94.9756 32.4294L95.2105 32.9809L95.0248 32.9431L94.5962 32.4876L94.2112 32.1961L92.8107 31.3875L91.757 31.0564L90.9326 30.9271L89.8326 30.9158L88.9918 31.0543L88.0911 31.2968L86.9884 31.7693L86.1532 32.2576L84.8267 32.8781L83.784 33.2466L82.7713 33.5631L81.8187 33.7757L80.7624 33.9283L79.5204 34.0431L77.8553 34.0522L75.9008 33.9636L73.5232 33.7694L71.4431 33.5389L69.9281 33.2881L68.2056 32.9175L65.3775 32.1859L63.7287 31.9271L63.0299 31.9396L62.241 32.1081L61.5778 32.4183L60.5925 33.1666L60.2186 33.5746L59.6783 34.5104L59.5337 35.1202L59.6048 35.7158L59.7878 36.2374L60.312 36.8866L60.9782 37.4099L61.445 37.6794L62.6762 38.1822L63.5743 38.4235L64.8 38.5766L65.9 38.5878L67.2977 38.5629L68.4196 38.656L69.2658 38.8673L69.6071 38.995L70.5407 39.5341L71.458 40.341L72.2335 41.2739L72.927 42.2289L72.9188 42.3628L71.5402 41.6362L70.4646 41.2231L69.3508 40.996L68.1989 40.9549L67.2544 41.0335L66.1981 41.1861L65.1117 41.3907L62.7151 41.948L61.5687 42.2566L60.9436 42.381L59.991 42.5935L57.8183 43.0028L56.8138 43.1854L54.701 43.4906L53.1315 43.6936L51.8076 43.8304L50.1344 43.9735L48.7067 44.0504L47.2273 44.0974L45.4284 44.0987L43.2064 43.9942L41.3938 43.7796L39.6413 43.461L38.1344 43.0762L36.7695 42.5655L36.1689 42.288L34.924 41.5693L33.6955 40.5827L32.9119 39.7837L32.8382 39.6718L33.3703 38.8699L34.1344 37.786L35.7553 34.9786L36.4023 34.9361L37.8517 34.9411L39.1975 34.8862L41.5695 34.7307L42.8115 34.6159L45.1918 34.3265L46.0325 34.188L47.037 34.0054L47.7139 33.911L47.8258 33.8369L46.5701 33.7359L45.1207 33.7309L44.2144 33.6235L43.6357 33.428L43.2207 33.1885L42.762 32.785L42.3934 32.2256L42.1449 31.4582L42.0519 30.7807L42.1746 30.089L42.3029 29.7471L42.603 29.2272L43.2089 28.5372L44.0523 27.915L44.6855 27.6567L45.2587 27.5024L46.3069 27.4837L47.3169 27.6509L50.0413 28.3226L52.0095 28.6271L54.237 29.0813L55.6264 29.1903L56.9203 29.1054L57.761 28.9669L58.6836 28.8064L58.4461 28.7386L57.3761 28.6754L56.4179 28.5381L55.6235 28.3568L54.9929 28.1313L53.9555 27.5324L53.5269 27.0769L53.2401 26.4955L53.139 25.9519L53.188 25.1483L53.5127 24.2266L54.0148 23.4767L54.7026 22.7646L55.3221 22.2905L56.0754 21.8242L56.9024 21.4699L57.8332 21.1754L58.8377 20.9928L60.1015 20.96L61.461 21.1209L62.916 21.4757L64.0734 21.8667L66.3502 22.8346L66.6395 22.9323L66.1509 22.5809L65.0397 21.8701L64.3654 21.4807L63.0605 20.866L61.6656 20.4072L60.4699 20.2022L59.318 20.161L58.3435 20.2916L57.3909 20.5041L56.8177 20.6584L56.2144 20.8647L55.1718 21.2332L54.1891 21.4977L53.2447 21.5763L52.524 21.5068L52.049 21.3712L51.0635 20.8023L50.228 19.9733L49.6383 19.0782L49.286 18.2509L49.2149 17.6553L49.2639 16.8518L49.4303 16.324L49.9406 15.4401L50.6583 14.6761L49.6375 15.1265L48.3847 15.8589L46.7662 16.8655L45.4615 17.568L44.6645 17.8703L43.8975 18.1207L42.9749 18.2813L42.0086 18.2779L40.9986 18.1107L40.2861 17.9073L39.2405 17.4423L38.4106 16.9632L37.4851 16.2902L37.2558 16.0884L37.4796 15.9404L38.2685 15.7719L39.1474 15.4475L39.8706 15.0333L40.6321 14.4331L41.7238 13.261L40.7548 13.7414L39.8459 14.1178L38.9151 14.4123L38.0963 14.6327L37.0399 14.7853L36.2292 14.8719L36.0299 14.6181L35.2653 13.0676L34.5362 11.8148L33.4522 10.2185L32.5812 9.0917L32.5075 8.97982L32.9933 8.49776L34.0086 7.69753L35.1495 7.03912L35.9465 6.73675L36.7135 6.48637L37.3686 6.31002L38.6406 6.14325L39.7188 6.07255L40.8707 6.11374L42.6833 6.32837L44.8071 6.72268L46.5077 7.01135L47.8153 7.14238L49.1829 7.16943L50.1573 7.03883L50.9462 6.87039L51.7651 6.64995L52.674 6.27355L53.8667 5.64509L54.8138 5.08277L56.0148 4.32039L57.2839 3.3201L58.3674 2.28195L59.5791 0.901919L59.6883 1.31161L59.6504 2.81476L59.4732 3.96022L59.1104 5.06783L58.8921 5.56569L58.2918 6.6055L57.4539 7.57752L55.7509 9.08981L54.1542 10.1783L53.3791 10.5626L52.7458 10.8209L53.3983 11.1282L54.4001 11.4294L55.5958 11.6344L57.119 11.7513L58.4647 11.6964L59.7367 11.5297L60.7412 11.3471L62.0514 10.9944L62.9903 10.566L63.9374 10.0037L65.0046 9.23338L66.0199 8.43315L67.2208 7.67076L68.1597 7.24237L69.2843 6.85182L69.9394 6.67548L70.7801 6.53698L71.9183 6.3623L73.4279 6.26332L74.8255 6.23838L76.5643 6.34113L78.0793 6.59194L79.2968 6.87894L80.6918 7.33772L81.6336 7.74284L83.6565 8.91078L84.6557 9.69564L85.5431 10.5545L85.8161 10.9201L85.7042 10.9942L83.6705 10.4439L81.5248 9.96763L79.1854 9.58745L77.8779 9.45642L76.3247 9.39153L75.1646 9.48427L74.3757 9.65271L73.7725 9.85901L72.9892 10.3772L72.2796 11.0074L71.8456 11.5194L71.4854 12.1433L71.2808 12.857L71.2319 13.6606L71.3985 14.45L71.759 15.1433L72.2532 15.8446L73.1105 16.7555L73.7248 17.2488L74.4809 17.616L75.2235 17.7674L75.9741 17.7849L76.9486 17.6543L77.9312 17.3898L78.5345 17.1835L79.3015 16.9331L80.0985 16.6308L81.2749 16.2702L82.2057 15.9757L82.8308 15.8513L83.6196 15.6829L84.8916 15.5161L86.3711 15.4691L87.8424 15.5561L89.3574 15.8069L90.9681 16.2515L92.1774 16.6724L93.6679 17.325L94.6835 17.8421L96.1358 18.6806L97.8394 19.8028L99.5347 21.0589L100.253 21.6121L101.342 22.2409L102.344 22.5421L103.354 22.7093L104.773 22.7663L105.8 22.6656L106.804 22.4831L107.429 22.3587L108.218 22.1903L108.33 22.1162Z" stroke="white" stroke-width="0.4" shape-rendering="crispEdges" mask="url(#path-1-inside-1_1485_2704)"/>
</g>
<path fill-rule="evenodd" clip-rule="evenodd" d="M25.3216 42.1669C34.6968 39.3232 39.9897 29.4117 37.1437 20.0289C34.2977 10.6462 24.3905 5.3452 15.0153 8.18891C5.6401 11.0326 0.347178 20.9441 3.19319 30.3269C6.03921 39.7097 15.9464 45.0106 25.3216 42.1669Z" fill="white"/>
<path fill-rule="evenodd" clip-rule="evenodd" d="M22.178 7.54004L24.9754 12.8366L31.6733 11.6747C29.0032 9.40043 25.6961 7.94493 22.178 7.54004Z" fill="url(#paint1_linear_1485_2704)"/>
<path fill-rule="evenodd" clip-rule="evenodd" d="M37.1662 30.2633C38.1329 27.0347 38.1953 23.4962 37.1435 20.0288C37.0329 19.6641 36.9082 19.3083 36.777 18.9563L32.877 24.1431L37.1662 30.2633Z" fill="url(#paint2_linear_1485_2704)"/>
<path fill-rule="evenodd" clip-rule="evenodd" d="M31.1038 39.1612L23.8289 36.818L19.4296 42.915C21.3709 42.9971 23.3574 42.7631 25.3214 42.1674C27.4838 41.5115 29.4254 40.4761 31.1038 39.1612Z" fill="url(#paint3_linear_1485_2704)"/>
<path opacity="0.3" fill-rule="evenodd" clip-rule="evenodd" d="M25.4303 8.1971C28.0259 10.3445 30.0425 13.2507 31.0939 16.7171C33.94 26.0999 28.647 36.0114 19.2718 38.8551C15.8088 39.9055 12.2739 39.8417 9.04843 38.8737C13.4795 42.5393 19.6012 43.9875 25.5128 42.1944C34.888 39.3507 40.1809 29.4392 37.3349 20.0564C35.5402 14.1394 30.9369 9.84877 25.4303 8.1971Z" fill="#010202"/>
<mask id="mask0_1485_2704" style="mask-type:luminance" maskUnits="userSpaceOnUse" x="-3" y="1" width="47" height="48">
<path d="M7.79073 48.3563L43.3365 37.5745L32.5458 1.99941L-3 12.7812L7.79073 48.3563Z" fill="#D9D9D9"/>
</mask>
<g mask="url(#mask0_1485_2704)">
<path fill-rule="evenodd" clip-rule="evenodd" d="M15.2576 8.9874C6.33727 11.6932 1.2833 21.1572 3.99125 30.0848C6.69903 39.0119 16.1591 44.074 25.0795 41.3683C33.9999 38.6625 39.0531 29.1981 36.3454 20.271C33.6374 11.3434 24.178 6.28165 15.2576 8.9874ZM25.5639 42.9654C15.7637 45.9381 5.37026 40.3765 2.39538 30.5688C-0.579661 20.7607 4.97296 10.3629 14.7732 7.39024C24.5734 4.41761 34.9662 9.97881 37.9412 19.787C40.9161 29.5946 35.3642 39.9928 25.5639 42.9654Z" fill="#2E2E30"/>
</g>
<path fill-rule="evenodd" clip-rule="evenodd" d="M22.0822 31.4879L13.9916 28.6788L14.1581 20.1118L22.3513 17.6267L27.249 24.6576L22.0822 31.4879Z" fill="url(#paint4_linear_1485_2704)"/>
<path fill-rule="evenodd" clip-rule="evenodd" d="M14.8372 28.0886L21.7826 30.5003L26.2184 24.6364L22.0141 18.6009L14.9795 20.7347L14.8372 28.0886ZM22.3244 32.2864C22.16 32.3363 21.9796 32.3352 21.809 32.2765L13.7182 29.4669C13.3772 29.3482 13.1509 29.0233 13.1578 28.6613L13.3235 20.0952C13.3311 19.7336 13.57 19.4181 13.9153 19.3134L22.109 16.828C22.4547 16.7232 22.8287 16.8528 23.0354 17.1493L27.9329 24.1797C28.1393 24.477 28.1314 24.8724 27.914 25.161L22.7474 31.9919C22.6381 32.1354 22.4893 32.2364 22.3244 32.2864Z" fill="#2E2E30"/>
<path fill-rule="evenodd" clip-rule="evenodd" d="M9.56671 10.9368C6.56762 13.172 4.37823 16.2918 3.2621 19.7977L9.98578 17.0966L9.56671 10.9368Z" fill="url(#paint5_linear_1485_2704)"/>
<path fill-rule="evenodd" clip-rule="evenodd" d="M8.84471 12.6105C7.0978 14.1938 5.68268 16.1509 4.71892 18.3129L9.11259 16.5483L8.84471 12.6105ZM3.50444 20.5963C3.22197 20.682 2.91258 20.6119 2.69472 20.4088C2.45779 20.1888 2.36947 19.8517 2.46729 19.5441C3.65791 15.807 5.94077 12.5989 9.0682 10.2678C9.3125 10.085 9.63789 10.0508 9.91547 10.1788C10.1925 10.307 10.378 10.5757 10.399 10.8804L10.818 17.0402C10.8421 17.4009 10.6318 17.7362 10.2968 17.8709L3.57316 20.572C3.5504 20.5812 3.52732 20.5894 3.50444 20.5963Z" fill="#2E2E30"/>
<path fill-rule="evenodd" clip-rule="evenodd" d="M25.4293 11.911L29.6493 11.1786C27.8443 9.95238 25.8291 9.09044 23.6988 8.63432L25.4293 11.911ZM31.916 12.4735C31.8841 12.4832 31.8505 12.4911 31.8162 12.4968L25.1183 13.6588C24.7624 13.7208 24.4073 13.5459 24.2383 13.2263L21.4409 7.92972C21.2962 7.65561 21.3154 7.32423 21.4895 7.06909C21.6647 6.81363 21.9655 6.67531 22.2731 6.71105C25.9484 7.13398 29.3859 8.63073 32.2142 11.0396C32.4602 11.2492 32.563 11.5826 32.4783 11.8949C32.402 12.1738 32.1884 12.3909 31.916 12.4735Z" fill="#2E2E30"/>
<path fill-rule="evenodd" clip-rule="evenodd" d="M21.0663 42.0728C23.9641 41.9206 26.8228 41.0035 29.2632 39.4447L24.1506 37.7973L21.0663 42.0728ZM25.5642 42.9654C23.5604 43.5732 21.4845 43.8366 19.3955 43.7482C19.0888 43.7348 18.8141 43.5548 18.6802 43.278C18.5459 43.0019 18.5744 42.6746 18.7538 42.4255L23.1527 36.3286C23.3639 36.0349 23.7399 35.9127 24.084 36.0229L31.3596 38.3664C31.6534 38.4616 31.8707 38.7108 31.9251 39.0146C31.9795 39.3184 31.8614 39.6281 31.6187 39.818C29.8069 41.2372 27.7703 42.2963 25.5642 42.9654Z" fill="#2E2E30"/>
<path fill-rule="evenodd" clip-rule="evenodd" d="M9.02651 31.378L2.90227 29.2317C2.98824 29.5975 3.08267 29.9624 3.19329 30.3271C4.24504 33.7945 6.26264 36.7022 8.86004 38.8497L9.02651 31.378Z" fill="url(#paint6_linear_1485_2704)"/>
<mask id="mask1_1485_2704" style="mask-type:luminance" maskUnits="userSpaceOnUse" x="1" y="26" width="12" height="15">
<path d="M1.82471 28.6855L5.4826 40.745L12.1283 38.7292L8.4704 26.6698L1.82471 28.6855V28.6855Z" fill="#2E2E30"/>
</mask>
<g mask="url(#mask1_1485_2704)">
<path fill-rule="evenodd" clip-rule="evenodd" d="M4.1399 30.5481C4.95306 32.978 6.29303 35.1703 8.0682 36.9876L8.18033 31.9643L4.1399 30.5481ZM9.1031 39.6468C8.83818 39.7271 8.54705 39.6713 8.32979 39.4913C5.51184 37.1624 3.46 34.0768 2.39565 30.5679C2.28003 30.1867 2.18219 29.8047 2.09191 29.4228C2.02166 29.1261 2.11889 28.8147 2.34511 28.6106C2.56974 28.407 2.89035 28.3417 3.17796 28.4434L9.3022 30.5897C9.64385 30.7087 9.86878 31.0347 9.86042 31.3959L9.69448 38.8674C9.68743 39.187 9.49801 39.4741 9.20792 39.6074C9.17357 39.6225 9.13821 39.6361 9.1031 39.6468Z" fill="#2E2E30"/>
</g>
<path fill-rule="evenodd" clip-rule="evenodd" d="M14.1577 20.1112L10.2263 17.2754L14.1577 20.1112Z" fill="white"/>
<path fill-rule="evenodd" clip-rule="evenodd" d="M14.4004 20.9106C14.16 20.9835 13.8899 20.9474 13.6705 20.789L9.73965 17.953C9.36566 17.6833 9.28126 17.1618 9.55022 16.7884C9.82062 16.414 10.3406 16.3301 10.7141 16.5999L14.6448 19.4354C15.0188 19.705 15.1032 20.2265 14.8342 20.5999C14.7231 20.7546 14.569 20.8594 14.4004 20.9106Z" fill="#2E2E30"/>
<path fill-rule="evenodd" clip-rule="evenodd" d="M22.3514 17.6257L24.9755 12.8364L22.3514 17.6257Z" fill="white"/>
<path fill-rule="evenodd" clip-rule="evenodd" d="M22.5937 18.4245C22.3862 18.4874 22.1556 18.4702 21.9506 18.3574C21.5471 18.1362 21.3985 17.6289 21.6203 17.2245L24.2443 12.4351C24.4645 12.0311 24.972 11.883 25.3762 12.1046C25.7798 12.3263 25.9279 12.8337 25.7059 13.2377L23.0826 18.0274C22.9738 18.2261 22.7953 18.3634 22.5937 18.4245Z" fill="#2E2E30"/>
<path fill-rule="evenodd" clip-rule="evenodd" d="M13.9915 28.6787L9.02684 31.3781L13.9915 28.6787Z" fill="white"/>
<path fill-rule="evenodd" clip-rule="evenodd" d="M9.26753 32.1774C8.89729 32.2897 8.48601 32.1308 8.29385 31.7769C8.07336 31.3717 8.22351 30.8651 8.62796 30.6453L13.5931 27.9458C13.9934 27.7255 14.5041 27.8752 14.724 28.2806C14.9444 28.6853 14.7942 29.1918 14.3898 29.4116L9.42477 32.1117C9.3739 32.1394 9.32126 32.1611 9.26753 32.1774Z" fill="#2E2E30"/>
<path fill-rule="evenodd" clip-rule="evenodd" d="M33.9071 24.1609L36.791 28.2755C37.2577 25.7788 37.1539 23.2116 36.4802 20.7393L33.9071 24.1609ZM37.4085 31.0619C37.3728 31.0727 37.3364 31.0809 37.2994 31.0874C36.9836 31.1379 36.6672 31.0042 36.4838 30.7424L32.1946 24.6223C31.9864 24.3267 31.9929 23.9306 32.2109 23.6418L36.1103 18.4551C36.2936 18.2111 36.5961 18.088 36.8955 18.1309C37.197 18.1749 37.4507 18.3793 37.5576 18.6649C37.7107 19.0737 37.8367 19.4413 37.9415 19.7868C39.0057 23.2952 39.0137 27.0008 37.9651 30.503C37.8844 30.7734 37.6734 30.9816 37.4085 31.0619Z" fill="#2E2E30"/>
<path fill-rule="evenodd" clip-rule="evenodd" d="M27.2488 24.6572L32.8765 24.1438L27.2488 24.6572Z" fill="white"/>
<path fill-rule="evenodd" clip-rule="evenodd" d="M33.1202 24.9413C33.0665 24.9576 33.0106 24.9687 32.953 24.974L27.3251 25.4869C26.8667 25.5289 26.4605 25.1911 26.4189 24.7322C26.3766 24.273 26.7177 23.8654 27.1732 23.8255L32.8009 23.3121C33.2593 23.2701 33.6655 23.6079 33.7073 24.0673C33.7441 24.4683 33.4904 24.829 33.1202 24.9413Z" fill="#2E2E30"/>
<path fill-rule="evenodd" clip-rule="evenodd" d="M23.9522 37.6517C23.5118 37.7853 23.0458 37.536 22.9121 37.0952L21.2845 31.7292C21.1508 31.2884 21.3997 30.8222 21.8402 30.6886C22.2806 30.555 22.7466 30.8044 22.8803 31.2452L24.5079 36.6111C24.6417 37.0519 24.3927 37.5181 23.9522 37.6517Z" fill="#2E2E30"/>
<mask id="path-28-outside-2_1485_2704" maskUnits="userSpaceOnUse" x="40" y="16" width="55" height="15" fill="black">
<rect fill="white" x="40" y="16" width="55" height="15"/>
<path d="M41.2608 29.1562V18.2139C41.2608 17.9854 41.3428 17.792 41.5069 17.6338C41.6709 17.4756 41.8672 17.3965 42.0957 17.3965H52.2295C52.458 17.3965 52.6514 17.4785 52.8096 17.6426C52.9737 17.8066 53.0557 18.0029 53.0557 18.2314V19.0576C53.0557 19.2861 52.9737 19.4824 52.8096 19.6465C52.6514 19.8047 52.458 19.8838 52.2295 19.8838H44.5743V22.9775H50.8057C51.0342 22.9775 51.2276 23.0596 51.3858 23.2236C51.5498 23.3877 51.6319 23.5811 51.6319 23.8037V24.6387C51.6319 24.8672 51.5498 25.0635 51.3858 25.2275C51.2276 25.3857 51.0342 25.4648 50.8057 25.4648H44.5743V29.1562C44.5743 29.3965 44.4922 29.5986 44.3282 29.7627C44.17 29.9209 43.9766 30 43.7481 30H42.0957C41.8672 30 41.6709 29.9209 41.5069 29.7627C41.3428 29.5986 41.2608 29.3965 41.2608 29.1562ZM54.1519 25.9482V20.9121C54.1519 20.7539 54.2017 20.625 54.3013 20.5254C54.4068 20.4199 54.5357 20.3672 54.688 20.3672H56.6568C56.8091 20.3672 56.9351 20.4199 57.0347 20.5254C57.1402 20.625 57.1929 20.7539 57.1929 20.9121V25.9482C57.1929 27.3545 57.7495 28.0576 58.8628 28.0576C59.5952 28.0576 60.3833 27.6357 61.2271 26.792V20.9121C61.2271 20.7539 61.2769 20.625 61.3765 20.5254C61.482 20.4199 61.6109 20.3672 61.7632 20.3672H63.7232C63.8814 20.3672 64.0103 20.4199 64.1099 20.5254C64.2154 20.625 64.2681 20.7539 64.2681 20.9121V29.4639C64.2681 29.6162 64.2154 29.7451 64.1099 29.8506C64.0103 29.9502 63.8814 30 63.7232 30H61.7632C61.6109 30 61.482 29.9502 61.3765 29.8506C61.2769 29.7451 61.2271 29.6162 61.2271 29.4639V28.9014C60.2193 29.751 59.1441 30.1758 58.0015 30.1758C56.8648 30.1758 55.939 29.8301 55.2241 29.1387C54.5093 28.4414 54.1519 27.3779 54.1519 25.9482ZM66.709 17.9414C66.709 17.7832 66.7588 17.6543 66.8584 17.5547C66.9639 17.4492 67.0928 17.3965 67.2451 17.3965H69.2139C69.3662 17.3965 69.4922 17.4492 69.5918 17.5547C69.6973 17.6543 69.75 17.7832 69.75 17.9414V20.6396C70.6992 20.3408 71.5459 20.1914 72.29 20.1914C73.7314 20.1914 74.877 20.6221 75.7266 21.4834C76.5762 22.3389 77.001 23.5752 77.001 25.1924C77.001 28.5146 75.1406 30.1758 71.4199 30.1758C70.5703 30.1758 69.6885 30.082 68.7744 29.8945C67.8662 29.7012 67.1777 29.4668 66.709 29.1914V17.9414ZM69.75 22.6699V27.8555C70.2539 27.9902 70.8955 28.0576 71.6748 28.0576C72.4541 28.0576 73.0137 27.832 73.3535 27.3809C73.6992 26.9297 73.8721 26.2002 73.8721 25.1924C73.8721 24.1846 73.7021 23.4551 73.3623 23.0039C73.0283 22.5469 72.46 22.3184 71.6572 22.3184C71.1416 22.3184 70.5059 22.4355 69.75 22.6699ZM79.7231 28.9102C78.8091 28.0664 78.352 26.8242 78.352 25.1836C78.352 23.5371 78.8091 22.2949 79.7231 21.457C80.6372 20.6133 81.9497 20.1914 83.6606 20.1914C85.3774 20.1914 86.6929 20.6133 87.6069 21.457C88.521 22.2949 88.978 23.5371 88.978 25.1836C88.978 26.8242 88.521 28.0664 87.6069 28.9102C86.6929 29.7539 85.3774 30.1758 83.6606 30.1758C81.9497 30.1758 80.6372 29.7539 79.7231 28.9102ZM81.9468 22.8984C81.5835 23.373 81.4018 24.1318 81.4018 25.1748C81.4018 26.2178 81.5835 26.9795 81.9468 27.46C82.31 27.9404 82.8813 28.1807 83.6606 28.1807C84.4458 28.1807 85.02 27.9404 85.3833 27.46C85.7524 26.9795 85.937 26.2178 85.937 25.1748C85.937 24.1318 85.7524 23.373 85.3833 22.8984C85.02 22.4238 84.4458 22.1865 83.6606 22.1865C82.8813 22.1865 82.31 22.4238 81.9468 22.8984ZM90.874 29.4639V17.9414C90.874 17.7832 90.9238 17.6543 91.0234 17.5547C91.1289 17.4492 91.2578 17.3965 91.4101 17.3965H93.3789C93.5312 17.3965 93.6572 17.4492 93.7568 17.5547C93.8623 17.6543 93.915 17.7832 93.915 17.9414V29.4639C93.915 29.6162 93.8623 29.7451 93.7568 29.8506C93.6572 29.9502 93.5312 30 93.3789 30H91.4101C91.2578 30 91.1289 29.9502 91.0234 29.8506C90.9238 29.7451 90.874 29.6162 90.874 29.4639Z"/>
</mask>
<path d="M41.2608 29.1562V18.2139C41.2608 17.9854 41.3428 17.792 41.5069 17.6338C41.6709 17.4756 41.8672 17.3965 42.0957 17.3965H52.2295C52.458 17.3965 52.6514 17.4785 52.8096 17.6426C52.9737 17.8066 53.0557 18.0029 53.0557 18.2314V19.0576C53.0557 19.2861 52.9737 19.4824 52.8096 19.6465C52.6514 19.8047 52.458 19.8838 52.2295 19.8838H44.5743V22.9775H50.8057C51.0342 22.9775 51.2276 23.0596 51.3858 23.2236C51.5498 23.3877 51.6319 23.5811 51.6319 23.8037V24.6387C51.6319 24.8672 51.5498 25.0635 51.3858 25.2275C51.2276 25.3857 51.0342 25.4648 50.8057 25.4648H44.5743V29.1562C44.5743 29.3965 44.4922 29.5986 44.3282 29.7627C44.17 29.9209 43.9766 30 43.7481 30H42.0957C41.8672 30 41.6709 29.9209 41.5069 29.7627C41.3428 29.5986 41.2608 29.3965 41.2608 29.1562ZM54.1519 25.9482V20.9121C54.1519 20.7539 54.2017 20.625 54.3013 20.5254C54.4068 20.4199 54.5357 20.3672 54.688 20.3672H56.6568C56.8091 20.3672 56.9351 20.4199 57.0347 20.5254C57.1402 20.625 57.1929 20.7539 57.1929 20.9121V25.9482C57.1929 27.3545 57.7495 28.0576 58.8628 28.0576C59.5952 28.0576 60.3833 27.6357 61.2271 26.792V20.9121C61.2271 20.7539 61.2769 20.625 61.3765 20.5254C61.482 20.4199 61.6109 20.3672 61.7632 20.3672H63.7232C63.8814 20.3672 64.0103 20.4199 64.1099 20.5254C64.2154 20.625 64.2681 20.7539 64.2681 20.9121V29.4639C64.2681 29.6162 64.2154 29.7451 64.1099 29.8506C64.0103 29.9502 63.8814 30 63.7232 30H61.7632C61.6109 30 61.482 29.9502 61.3765 29.8506C61.2769 29.7451 61.2271 29.6162 61.2271 29.4639V28.9014C60.2193 29.751 59.1441 30.1758 58.0015 30.1758C56.8648 30.1758 55.939 29.8301 55.2241 29.1387C54.5093 28.4414 54.1519 27.3779 54.1519 25.9482ZM66.709 17.9414C66.709 17.7832 66.7588 17.6543 66.8584 17.5547C66.9639 17.4492 67.0928 17.3965 67.2451 17.3965H69.2139C69.3662 17.3965 69.4922 17.4492 69.5918 17.5547C69.6973 17.6543 69.75 17.7832 69.75 17.9414V20.6396C70.6992 20.3408 71.5459 20.1914 72.29 20.1914C73.7314 20.1914 74.877 20.6221 75.7266 21.4834C76.5762 22.3389 77.001 23.5752 77.001 25.1924C77.001 28.5146 75.1406 30.1758 71.4199 30.1758C70.5703 30.1758 69.6885 30.082 68.7744 29.8945C67.8662 29.7012 67.1777 29.4668 66.709 29.1914V17.9414ZM69.75 22.6699V27.8555C70.2539 27.9902 70.8955 28.0576 71.6748 28.0576C72.4541 28.0576 73.0137 27.832 73.3535 27.3809C73.6992 26.9297 73.8721 26.2002 73.8721 25.1924C73.8721 24.1846 73.7021 23.4551 73.3623 23.0039C73.0283 22.5469 72.46 22.3184 71.6572 22.3184C71.1416 22.3184 70.5059 22.4355 69.75 22.6699ZM79.7231 28.9102C78.8091 28.0664 78.352 26.8242 78.352 25.1836C78.352 23.5371 78.8091 22.2949 79.7231 21.457C80.6372 20.6133 81.9497 20.1914 83.6606 20.1914C85.3774 20.1914 86.6929 20.6133 87.6069 21.457C88.521 22.2949 88.978 23.5371 88.978 25.1836C88.978 26.8242 88.521 28.0664 87.6069 28.9102C86.6929 29.7539 85.3774 30.1758 83.6606 30.1758C81.9497 30.1758 80.6372 29.7539 79.7231 28.9102ZM81.9468 22.8984C81.5835 23.373 81.4018 24.1318 81.4018 25.1748C81.4018 26.2178 81.5835 26.9795 81.9468 27.46C82.31 27.9404 82.8813 28.1807 83.6606 28.1807C84.4458 28.1807 85.02 27.9404 85.3833 27.46C85.7524 26.9795 85.937 26.2178 85.937 25.1748C85.937 24.1318 85.7524 23.373 85.3833 22.8984C85.02 22.4238 84.4458 22.1865 83.6606 22.1865C82.8813 22.1865 82.31 22.4238 81.9468 22.8984ZM90.874 29.4639V17.9414C90.874 17.7832 90.9238 17.6543 91.0234 17.5547C91.1289 17.4492 91.2578 17.3965 91.4101 17.3965H93.3789C93.5312 17.3965 93.6572 17.4492 93.7568 17.5547C93.8623 17.6543 93.915 17.7832 93.915 17.9414V29.4639C93.915 29.6162 93.8623 29.7451 93.7568 29.8506C93.6572 29.9502 93.5312 30 93.3789 30H91.4101C91.2578 30 91.1289 29.9502 91.0234 29.8506C90.9238 29.7451 90.874 29.6162 90.874 29.4639Z" fill="white"/>
<path d="M52.8096 17.6426L52.3776 18.0591L52.3853 18.0668L52.8096 17.6426ZM44.5743 19.8838V19.2838H43.9743V19.8838H44.5743ZM44.5743 22.9775H43.9743V23.5775H44.5743V22.9775ZM51.3858 23.2236L50.9538 23.6402L50.9615 23.6479L51.3858 23.2236ZM44.5743 25.4648V24.8648H43.9743V25.4648H44.5743ZM41.5069 29.7627L41.0825 30.187L41.0904 30.1946L41.5069 29.7627ZM41.2608 29.1562H41.8608V18.2139H41.2608H40.6608V29.1562H41.2608ZM41.2608 18.2139H41.8608C41.8608 18.1478 41.8769 18.1105 41.9234 18.0657L41.5069 17.6338L41.0904 17.2019C40.8087 17.4735 40.6608 17.8229 40.6608 18.2139H41.2608ZM41.5069 17.6338L41.9234 18.0657C41.9753 18.0156 42.0221 17.9965 42.0957 17.9965V17.3965V16.7965C41.7123 16.7965 41.3666 16.9355 41.0904 17.2019L41.5069 17.6338ZM42.0957 17.3965V17.9965H52.2295V17.3965V16.7965H42.0957V17.3965ZM52.2295 17.3965V17.9965C52.2956 17.9965 52.3329 18.0126 52.3777 18.0591L52.8096 17.6426L53.2415 17.2261C52.9699 16.9444 52.6205 16.7965 52.2295 16.7965V17.3965ZM52.8096 17.6426L52.3853 18.0668C52.4388 18.1203 52.4557 18.1648 52.4557 18.2314H53.0557H53.6557C53.6557 17.8411 53.5085 17.493 53.2339 17.2183L52.8096 17.6426ZM53.0557 18.2314H52.4557V19.0576H53.0557H53.6557V18.2314H53.0557ZM53.0557 19.0576H52.4557C52.4557 19.1243 52.4388 19.1687 52.3853 19.2222L52.8096 19.6465L53.2339 20.0707C53.5085 19.7961 53.6557 19.448 53.6557 19.0576H53.0557ZM52.8096 19.6465L52.3853 19.2222C52.3423 19.2652 52.3027 19.2838 52.2295 19.2838V19.8838V20.4838C52.6134 20.4838 52.9605 20.3441 53.2339 20.0707L52.8096 19.6465ZM52.2295 19.8838V19.2838H44.5743V19.8838V20.4838H52.2295V19.8838ZM44.5743 19.8838H43.9743V22.9775H44.5743H45.1743V19.8838H44.5743ZM44.5743 22.9775V23.5775H50.8057V22.9775V22.3775H44.5743V22.9775ZM50.8057 22.9775V23.5775C50.8718 23.5775 50.9091 23.5937 50.9539 23.6401L51.3858 23.2236L51.8177 22.8072C51.5461 22.5255 51.1966 22.3775 50.8057 22.3775V22.9775ZM51.3858 23.2236L50.9615 23.6479C51.0183 23.7047 51.0319 23.7475 51.0319 23.8037H51.6319H52.2319C52.2319 23.4146 52.0814 23.0707 51.81 22.7994L51.3858 23.2236ZM51.6319 23.8037H51.0319V24.6387H51.6319H52.2319V23.8037H51.6319ZM51.6319 24.6387H51.0319C51.0319 24.7053 51.015 24.7498 50.9615 24.8033L51.3858 25.2275L51.81 25.6518C52.0847 25.3772 52.2319 25.029 52.2319 24.6387H51.6319ZM51.3858 25.2275L50.9615 24.8033C50.9185 24.8463 50.8789 24.8648 50.8057 24.8648V25.4648V26.0648C51.1895 26.0648 51.5367 25.9252 51.81 25.6518L51.3858 25.2275ZM50.8057 25.4648V24.8648H44.5743V25.4648V26.0648H50.8057V25.4648ZM44.5743 25.4648H43.9743V29.1562H44.5743H45.1743V25.4648H44.5743ZM44.5743 29.1562H43.9743C43.9743 29.2436 43.9511 29.2913 43.9039 29.3384L44.3282 29.7627L44.7524 30.187C45.0334 29.906 45.1743 29.5493 45.1743 29.1562H44.5743ZM44.3282 29.7627L43.9039 29.3384C43.8609 29.3814 43.8213 29.4 43.7481 29.4V30V30.6C44.1319 30.6 44.479 30.4604 44.7524 30.187L44.3282 29.7627ZM43.7481 30V29.4H42.0957V30V30.6H43.7481V30ZM42.0957 30V29.4C42.0221 29.4 41.9753 29.3808 41.9234 29.3308L41.5069 29.7627L41.0904 30.1946C41.3666 30.461 41.7123 30.6 42.0957 30.6V30ZM41.5069 29.7627L41.9311 29.3384C41.884 29.2913 41.8608 29.2436 41.8608 29.1562H41.2608H40.6608C40.6608 29.5493 40.8017 29.906 41.0826 30.187L41.5069 29.7627ZM57.0347 20.5254L56.5985 20.9374L56.6102 20.9498L56.6227 20.9616L57.0347 20.5254ZM61.2271 26.792L61.6513 27.2163L61.8271 27.0405V26.792H61.2271ZM64.1099 20.5254L63.6737 20.9374L63.6854 20.9498L63.6979 20.9616L64.1099 20.5254ZM61.3765 29.8506L60.9403 30.2626L60.952 30.275L60.9645 30.2868L61.3765 29.8506ZM61.2271 28.9014H61.8271V27.6108L60.8403 28.4426L61.2271 28.9014ZM55.2241 29.1387L54.8052 29.5682L54.807 29.5699L55.2241 29.1387ZM54.1519 25.9482H54.7519V20.9121H54.1519H53.5519V25.9482H54.1519ZM54.1519 20.9121H54.7519C54.7519 20.8964 54.7542 20.8993 54.7489 20.913C54.7464 20.9196 54.7428 20.9268 54.7381 20.9339C54.7335 20.941 54.7289 20.9463 54.7256 20.9497L54.3013 20.5254L53.877 20.1011C53.6506 20.3275 53.5519 20.6162 53.5519 20.9121H54.1519ZM54.3013 20.5254L54.7256 20.9497C54.7263 20.9489 54.7247 20.9507 54.7205 20.9535C54.7162 20.9564 54.7107 20.9594 54.7042 20.9621C54.6979 20.9647 54.6924 20.9661 54.6887 20.9668C54.6851 20.9675 54.6846 20.9672 54.688 20.9672V20.3672V19.7672C54.3803 19.7672 54.0977 19.8805 53.877 20.1011L54.3013 20.5254ZM54.688 20.3672V20.9672H56.6568V20.3672V19.7672H54.688V20.3672ZM56.6568 20.3672V20.9672C56.6626 20.9672 56.6522 20.9679 56.6338 20.9602C56.6147 20.9522 56.6026 20.9417 56.5985 20.9374L57.0347 20.5254L57.4709 20.1134C57.2517 19.8813 56.9649 19.7672 56.6568 19.7672V20.3672ZM57.0347 20.5254L56.6227 20.9616C56.6201 20.9591 56.6156 20.9543 56.6106 20.9471C56.6056 20.9398 56.6013 20.9319 56.598 20.924C56.5911 20.9072 56.5929 20.9004 56.5929 20.9121H57.1929H57.7929C57.7929 20.6054 57.6837 20.3131 57.4467 20.0892L57.0347 20.5254ZM57.1929 20.9121H56.5929V25.9482H57.1929H57.7929V20.9121H57.1929ZM57.1929 25.9482H56.5929C56.5929 26.7144 56.7418 27.3998 57.1399 27.9027C57.5592 28.4323 58.1716 28.6576 58.8628 28.6576V28.0576V27.4576C58.4408 27.4576 58.2182 27.3314 58.0808 27.1579C57.9223 26.9576 57.7929 26.5884 57.7929 25.9482H57.1929ZM58.8628 28.0576V28.6576C59.8296 28.6576 60.7627 28.1049 61.6513 27.2163L61.2271 26.792L60.8028 26.3677C60.004 27.1666 59.3609 27.4576 58.8628 27.4576V28.0576ZM61.2271 26.792H61.8271V20.9121H61.2271H60.6271V26.792H61.2271ZM61.2271 20.9121H61.8271C61.8271 20.8964 61.8294 20.8993 61.8241 20.913C61.8216 20.9196 61.818 20.9268 61.8133 20.9339C61.8087 20.941 61.8041 20.9463 61.8007 20.9497L61.3765 20.5254L60.9522 20.1011C60.7258 20.3275 60.6271 20.6162 60.6271 20.9121H61.2271ZM61.3765 20.5254L61.8007 20.9497C61.8015 20.9489 61.7999 20.9507 61.7957 20.9535C61.7914 20.9564 61.7859 20.9594 61.7794 20.9621C61.7731 20.9647 61.7676 20.9661 61.7639 20.9668C61.7603 20.9675 61.7598 20.9672 61.7632 20.9672V20.3672V19.7672C61.4555 19.7672 61.1729 19.8805 60.9522 20.1011L61.3765 20.5254ZM61.7632 20.3672V20.9672H63.7232V20.3672V19.7672H61.7632V20.3672ZM63.7232 20.3672V20.9672C63.7349 20.9672 63.7281 20.9689 63.7113 20.9621C63.7034 20.9588 63.6954 20.9545 63.6882 20.9495C63.6809 20.9445 63.6762 20.94 63.6737 20.9374L64.1099 20.5254L64.5461 20.1134C64.3222 19.8764 64.0298 19.7672 63.7232 19.7672V20.3672ZM64.1099 20.5254L63.6979 20.9616C63.6953 20.9591 63.6908 20.9543 63.6858 20.9471C63.6807 20.9398 63.6765 20.9319 63.6732 20.924C63.6663 20.9072 63.6681 20.9004 63.6681 20.9121H64.2681H64.8681C64.8681 20.6054 64.7589 20.3131 64.5219 20.0892L64.1099 20.5254ZM64.2681 20.9121H63.6681V29.4639H64.2681H64.8681V20.9121H64.2681ZM64.2681 29.4639H63.6681C63.6681 29.4672 63.6678 29.4667 63.6685 29.4632C63.6692 29.4595 63.6706 29.454 63.6732 29.4476C63.6758 29.4412 63.6789 29.4357 63.6818 29.4314C63.6846 29.4272 63.6863 29.4256 63.6856 29.4263L64.1099 29.8506L64.5341 30.2749C64.7548 30.0542 64.8681 29.7715 64.8681 29.4639H64.2681ZM64.1099 29.8506L63.6856 29.4263C63.689 29.423 63.6942 29.4184 63.7013 29.4138C63.7084 29.4091 63.7157 29.4055 63.7223 29.403C63.736 29.3977 63.7389 29.4 63.7232 29.4V30V30.6C64.0191 30.6 64.3077 30.5013 64.5341 30.2749L64.1099 29.8506ZM63.7232 30V29.4H61.7632V30V30.6H63.7232V30ZM61.7632 30V29.4C61.7579 29.4 61.7564 29.3996 61.758 29.3999C61.7597 29.4002 61.7634 29.401 61.7685 29.403C61.7736 29.4049 61.7784 29.4074 61.7825 29.41C61.7865 29.4126 61.7885 29.4144 61.7885 29.4144L61.3765 29.8506L60.9645 30.2868C61.1874 30.4973 61.4661 30.6 61.7632 30.6V30ZM61.3765 29.8506L61.8127 29.4386C61.8127 29.4386 61.8145 29.4405 61.8171 29.4446C61.8196 29.4486 61.8221 29.4535 61.8241 29.4586C61.8261 29.4636 61.8269 29.4674 61.8272 29.4691C61.8275 29.4707 61.8271 29.4692 61.8271 29.4639H61.2271H60.6271C60.6271 29.7609 60.7298 30.0397 60.9403 30.2626L61.3765 29.8506ZM61.2271 29.4639H61.8271V28.9014H61.2271H60.6271V29.4639H61.2271ZM61.2271 28.9014L60.8403 28.4426C59.9232 29.2158 58.9811 29.5758 58.0015 29.5758V30.1758V30.7758C59.307 30.7758 60.5153 30.2861 61.6138 29.3601L61.2271 28.9014ZM58.0015 30.1758V29.5758C56.9964 29.5758 56.228 29.2749 55.6413 28.7074L55.2241 29.1387L54.807 29.5699C55.6499 30.3852 56.7332 30.7758 58.0015 30.7758V30.1758ZM55.2241 29.1387L55.6431 28.7092C55.0863 28.166 54.7519 27.2867 54.7519 25.9482H54.1519H53.5519C53.5519 27.4691 53.9323 28.7168 54.8052 29.5682L55.2241 29.1387ZM69.5918 17.5547L69.1556 17.9667L69.1674 17.9791L69.1798 17.9909L69.5918 17.5547ZM69.75 20.6396H69.15V21.4576L69.9302 21.212L69.75 20.6396ZM75.7266 21.4834L75.2994 21.9047L75.3008 21.9062L75.7266 21.4834ZM68.7744 29.8945L68.6495 30.4814L68.6538 30.4823L68.7744 29.8945ZM66.709 29.1914H66.109V29.5348L66.4051 29.7087L66.709 29.1914ZM69.75 22.6699L69.5723 22.0968L69.15 22.2278V22.6699H69.75ZM69.75 27.8555H69.15V28.3161L69.595 28.4351L69.75 27.8555ZM73.3535 27.3809L72.8772 27.0159L72.8743 27.0199L73.3535 27.3809ZM73.3623 23.0039L72.8778 23.358L72.8831 23.3649L73.3623 23.0039ZM66.709 17.9414H67.309C67.309 17.9257 67.3113 17.9286 67.306 17.9423C67.3035 17.9489 67.2999 17.9561 67.2952 17.9632C67.2906 17.9703 67.286 17.9756 67.2827 17.979L66.8584 17.5547L66.4341 17.1304C66.2077 17.3568 66.109 17.6455 66.109 17.9414H66.709ZM66.8584 17.5547L67.2827 17.979C67.2834 17.9782 67.2818 17.98 67.2776 17.9828C67.2733 17.9857 67.2678 17.9887 67.2614 17.9914C67.255 17.994 67.2495 17.9954 67.2458 17.9961C67.2423 17.9968 67.2417 17.9965 67.2451 17.9965V17.3965V16.7965C66.9375 16.7965 66.6548 16.9098 66.4341 17.1304L66.8584 17.5547ZM67.2451 17.3965V17.9965H69.2139V17.3965V16.7965H67.2451V17.3965ZM69.2139 17.3965V17.9965C69.2197 17.9965 69.2093 17.9972 69.1909 17.9895C69.1719 17.9815 69.1597 17.971 69.1556 17.9667L69.5918 17.5547L70.028 17.1427C69.8088 16.9106 69.522 16.7965 69.2139 16.7965V17.3965ZM69.5918 17.5547L69.1798 17.9909C69.1772 17.9884 69.1727 17.9836 69.1677 17.9764C69.1627 17.9691 69.1584 17.9612 69.1551 17.9533C69.1483 17.9365 69.15 17.9297 69.15 17.9414H69.75H70.35C70.35 17.6347 70.2408 17.3424 70.0038 17.1185L69.5918 17.5547ZM69.75 17.9414H69.15V20.6396H69.75H70.35V17.9414H69.75ZM69.75 20.6396L69.9302 21.212C70.8394 20.9257 71.6237 20.7914 72.29 20.7914V20.1914V19.5914C71.4681 19.5914 70.559 19.7559 69.5698 20.0673L69.75 20.6396ZM72.29 20.1914V20.7914C73.6039 20.7914 74.5838 21.1793 75.2994 21.9047L75.7266 21.4834L76.1537 21.0621C75.1701 20.0649 73.859 19.5914 72.29 19.5914V20.1914ZM75.7266 21.4834L75.3008 21.9062C76.0049 22.6151 76.401 23.6779 76.401 25.1924H77.001H77.601C77.601 23.4725 77.1474 22.0626 76.1523 21.0606L75.7266 21.4834ZM77.001 25.1924H76.401C76.401 26.7423 75.9701 27.8002 75.2061 28.4824C74.4291 29.1762 73.2035 29.5758 71.4199 29.5758V30.1758V30.7758C73.3571 30.7758 74.922 30.3448 76.0053 29.3775C77.1016 28.3986 77.601 26.9647 77.601 25.1924H77.001ZM71.4199 30.1758V29.5758C70.6145 29.5758 69.7732 29.4869 68.895 29.3068L68.7744 29.8945L68.6538 30.4823C69.6038 30.6771 70.5261 30.7758 71.4199 30.7758V30.1758ZM68.7744 29.8945L68.8994 29.3077C68.0162 29.1197 67.4004 28.9017 67.0129 28.6741L66.709 29.1914L66.4051 29.7087C66.9551 30.0319 67.7162 30.2827 68.6495 30.4814L68.7744 29.8945ZM66.709 29.1914H67.309V17.9414H66.709H66.109V29.1914H66.709ZM69.75 22.6699H69.15V27.8555H69.75H70.35V22.6699H69.75ZM69.75 27.8555L69.595 28.4351C70.1677 28.5883 70.8662 28.6576 71.6748 28.6576V28.0576V27.4576C70.9248 27.4576 70.3401 27.3922 69.905 27.2758L69.75 27.8555ZM71.6748 28.0576V28.6576C72.566 28.6576 73.3403 28.3956 73.8328 27.7419L73.3535 27.3809L72.8743 27.0199C72.687 27.2684 72.3422 27.4576 71.6748 27.4576V28.0576ZM73.3535 27.3809L73.8298 27.7458C74.2974 27.1356 74.4721 26.2416 74.4721 25.1924H73.8721H73.2721C73.2721 26.1588 73.1011 26.7238 72.8773 27.0159L73.3535 27.3809ZM73.8721 25.1924H74.4721C74.4721 24.1446 74.3007 23.2524 73.8416 22.6429L73.3623 23.0039L72.8831 23.3649C73.1036 23.6577 73.2721 24.2246 73.2721 25.1924H73.8721ZM73.3623 23.0039L73.8467 22.6499C73.3575 21.9804 72.5662 21.7184 71.6572 21.7184V22.3184V22.9184C72.3537 22.9184 72.6992 23.1134 72.8779 23.3579L73.3623 23.0039ZM71.6572 22.3184V21.7184C71.0582 21.7184 70.3584 21.8531 69.5723 22.0968L69.75 22.6699L69.9277 23.243C70.6533 23.018 71.225 22.9184 71.6572 22.9184V22.3184ZM79.7231 21.457L80.1286 21.8993L80.1301 21.8979L79.7231 21.457ZM87.6069 21.457L87.1999 21.8979L87.2015 21.8993L87.6069 21.457ZM85.3833 27.46L84.9075 27.0944L84.9047 27.0981L85.3833 27.46ZM85.3833 22.8984L84.9068 23.2631L84.9097 23.2668L85.3833 22.8984ZM79.7231 28.9102L80.1301 28.4693C79.375 27.7723 78.952 26.7129 78.952 25.1836H78.352H77.752C77.752 26.9356 78.2431 28.3605 79.3162 29.351L79.7231 28.9102ZM78.352 25.1836H78.952C78.952 23.6475 79.3755 22.5896 80.1286 21.8993L79.7231 21.457L79.3177 21.0147C78.2426 22.0002 77.752 23.4268 77.752 25.1836H78.352ZM79.7231 21.457L80.1301 21.8979C80.8975 21.1896 82.0434 20.7914 83.6606 20.7914V20.1914V19.5914C81.856 19.5914 80.3769 20.037 79.3162 21.0161L79.7231 21.457ZM83.6606 20.1914V20.7914C85.2844 20.7914 86.4329 21.1899 87.1999 21.8979L87.6069 21.457L88.0139 21.0161C86.9528 20.0367 85.4705 19.5914 83.6606 19.5914V20.1914ZM87.6069 21.457L87.2015 21.8993C87.9545 22.5896 88.378 23.6475 88.378 25.1836H88.978H89.578C89.578 23.4268 89.0874 22.0002 88.0123 21.0147L87.6069 21.457ZM88.978 25.1836H88.378C88.378 26.7129 87.955 27.7723 87.1999 28.4693L87.6069 28.9102L88.0139 29.351C89.0869 28.3605 89.578 26.9356 89.578 25.1836H88.978ZM87.6069 28.9102L87.1999 28.4693C86.4329 29.1773 85.2844 29.5758 83.6606 29.5758V30.1758V30.7758C85.4705 30.7758 86.9528 30.3305 88.0139 29.351L87.6069 28.9102ZM83.6606 30.1758V29.5758C82.0434 29.5758 80.8975 29.1776 80.1301 28.4693L79.7231 28.9102L79.3162 29.351C80.3769 30.3302 81.856 30.7758 83.6606 30.7758V30.1758ZM81.9468 22.8984L81.4703 22.5337C80.9863 23.1661 80.8018 24.0878 80.8018 25.1748H81.4018H82.0018C82.0018 24.1759 82.1807 23.5799 82.4232 23.2631L81.9468 22.8984ZM81.4018 25.1748H80.8018C80.8018 26.2628 80.9866 27.185 81.4682 27.8218L81.9468 27.46L82.4254 27.0981C82.1803 26.774 82.0018 26.1728 82.0018 25.1748H81.4018ZM81.9468 27.46L81.4682 27.8218C81.9769 28.4947 82.7538 28.7807 83.6606 28.7807V28.1807V27.5807C83.0089 27.5807 82.6432 27.3862 82.4254 27.0981L81.9468 27.46ZM83.6606 28.1807V28.7807C84.5715 28.7807 85.3523 28.4958 85.8619 27.8218L85.3833 27.46L84.9047 27.0981C84.6877 27.385 84.32 27.5807 83.6606 27.5807V28.1807ZM85.3833 27.46L85.8591 27.8255C86.3488 27.188 86.537 26.2642 86.537 25.1748H85.937H85.337C85.337 26.1714 85.156 26.7709 84.9075 27.0944L85.3833 27.46ZM85.937 25.1748H86.537C86.537 24.0864 86.3492 23.1631 85.8569 22.5301L85.3833 22.8984L84.9097 23.2668C85.1556 23.583 85.337 24.1772 85.337 25.1748H85.937ZM85.3833 22.8984L85.8597 22.5337C85.3491 21.8667 84.5689 21.5865 83.6606 21.5865V22.1865V22.7865C84.3226 22.7865 84.6909 22.981 84.9068 23.2631L85.3833 22.8984ZM83.6606 22.1865V21.5865C82.7564 21.5865 81.9801 21.8678 81.4703 22.5337L81.9468 22.8984L82.4232 23.2631C82.64 22.9799 83.0063 22.7865 83.6606 22.7865V22.1865ZM93.7568 17.5547L93.3206 17.9667L93.3324 17.9791L93.3448 17.9909L93.7568 17.5547ZM91.0234 29.8506L90.5872 30.2626L90.599 30.275L90.6114 30.2868L91.0234 29.8506ZM90.874 29.4639H91.474V17.9414H90.874H90.274V29.4639H90.874ZM90.874 17.9414H91.474C91.474 17.9257 91.4763 17.9286 91.471 17.9423C91.4685 17.9489 91.4649 17.9561 91.4602 17.9632C91.4556 17.9703 91.451 17.9756 91.4477 17.979L91.0234 17.5547L90.5991 17.1304C90.3727 17.3568 90.274 17.6455 90.274 17.9414H90.874ZM91.0234 17.5547L91.4477 17.979C91.4484 17.9782 91.4468 17.98 91.4426 17.9828C91.4383 17.9857 91.4328 17.9887 91.4264 17.9914C91.42 17.994 91.4145 17.9954 91.4108 17.9961C91.4073 17.9968 91.4067 17.9965 91.4101 17.9965V17.3965V16.7965C91.1025 16.7965 90.8198 16.9098 90.5991 17.1304L91.0234 17.5547ZM91.4101 17.3965V17.9965H93.3789V17.3965V16.7965H91.4101V17.3965ZM93.3789 17.3965V17.9965C93.3847 17.9965 93.3743 17.9972 93.3559 17.9895C93.3369 17.9815 93.3247 17.971 93.3206 17.9667L93.7568 17.5547L94.193 17.1427C93.9738 16.9106 93.687 16.7965 93.3789 16.7965V17.3965ZM93.7568 17.5547L93.3448 17.9909C93.3422 17.9884 93.3377 17.9836 93.3327 17.9764C93.3277 17.9691 93.3234 17.9612 93.3201 17.9533C93.3133 17.9365 93.315 17.9297 93.315 17.9414H93.915H94.515C94.515 17.6347 94.4058 17.3424 94.1688 17.1185L93.7568 17.5547ZM93.915 17.9414H93.315V29.4639H93.915H94.515V17.9414H93.915ZM93.915 29.4639H93.315C93.315 29.4672 93.3147 29.4667 93.3154 29.4632C93.3161 29.4595 93.3175 29.454 93.3201 29.4476C93.3227 29.4412 93.3258 29.4357 93.3287 29.4314C93.3315 29.4272 93.3333 29.4256 93.3325 29.4263L93.7568 29.8506L94.1811 30.2749C94.4017 30.0542 94.515 29.7715 94.515 29.4639H93.915ZM93.7568 29.8506L93.3325 29.4263C93.3348 29.424 93.3392 29.4201 93.3458 29.4157C93.3525 29.4113 93.3597 29.4075 93.367 29.4047C93.3825 29.3986 93.3889 29.4 93.3789 29.4V30V30.6C93.676 30.6 93.9592 30.4967 94.1811 30.2749L93.7568 29.8506ZM93.3789 30V29.4H91.4101V30V30.6H93.3789V30ZM91.4101 30V29.4C91.4048 29.4 91.4033 29.3996 91.4049 29.3999C91.4066 29.4002 91.4103 29.401 91.4154 29.403C91.4205 29.4049 91.4254 29.4074 91.4294 29.41C91.4334 29.4126 91.4354 29.4144 91.4354 29.4144L91.0234 29.8506L90.6114 30.2868C90.8343 30.4973 91.113 30.6 91.4101 30.6V30ZM91.0234 29.8506L91.4596 29.4386C91.4596 29.4386 91.4614 29.4405 91.464 29.4446C91.4666 29.4486 91.469 29.4535 91.471 29.4586C91.473 29.4636 91.4738 29.4674 91.4741 29.4691C91.4744 29.4707 91.474 29.4692 91.474 29.4639H90.874H90.274C90.274 29.7609 90.3767 30.0397 90.5872 30.2626L91.0234 29.8506Z" fill="black" mask="url(#path-28-outside-2_1485_2704)"/>
</g>
<defs>
<filter id="filter0_d_1485_2704" x="28.5076" y="-3.09766" width="83.8225" height="51.1963" filterUnits="userSpaceOnUse" color-interpolation-filters="sRGB">
<feFlood flood-opacity="0" result="BackgroundImageFix"/>
<feColorMatrix in="SourceAlpha" type="matrix" values="0 0 0 0 0 0 0 0 0 0 0 0 0 0 0 0 0 0 127 0" result="hardAlpha"/>
<feOffset/>
<feGaussianBlur stdDeviation="2"/>
<feComposite in2="hardAlpha" operator="out"/>
<feColorMatrix type="matrix" values="0 0 0 0 1 0 0 0 0 1 0 0 0 0 1 0 0 0 1 0"/>
<feBlend mode="normal" in2="BackgroundImageFix" result="effect1_dropShadow_1485_2704"/>
<feBlend mode="normal" in="SourceGraphic" in2="effect1_dropShadow_1485_2704" result="shape"/>
</filter>
<linearGradient id="paint0_linear_1485_2704" x1="77.0784" y1="4.07308" x2="50.3035" y2="50.4486" gradientUnits="userSpaceOnUse">
<stop stop-color="#0053A0"/>
<stop offset="1" stop-color="#00BF63" stop-opacity="0.8"/>
</linearGradient>
<linearGradient id="paint1_linear_1485_2704" x1="25.9514" y1="6.39547" x2="27.8999" y2="12.8193" gradientUnits="userSpaceOnUse">
<stop stop-color="#00BF63" stop-opacity="0.8"/>
<stop offset="1" stop-color="#0053A0"/>
</linearGradient>
<linearGradient id="paint2_linear_1485_2704" x1="34.2898" y1="19.7107" x2="37.4633" y2="30.1732" gradientUnits="userSpaceOnUse">
<stop stop-color="#00BF63" stop-opacity="0.8"/>
<stop offset="1" stop-color="#0053A0"/>
</linearGradient>
<linearGradient id="paint3_linear_1485_2704" x1="23.9734" y1="36.7742" x2="25.585" y2="42.0874" gradientUnits="userSpaceOnUse">
<stop stop-color="#00BF63" stop-opacity="0.8"/>
<stop offset="1" stop-color="#0053A0"/>
</linearGradient>
<linearGradient id="paint4_linear_1485_2704" x1="18.2547" y1="18.8692" x2="22.0822" y2="31.4879" gradientUnits="userSpaceOnUse">
<stop stop-color="#00BF63" stop-opacity="0.8"/>
<stop offset="1" stop-color="#0053A0"/>
</linearGradient>
<linearGradient id="paint5_linear_1485_2704" x1="5.44937" y1="12.1857" x2="7.37944" y2="18.5488" gradientUnits="userSpaceOnUse">
<stop stop-color="#00BF63" stop-opacity="0.8"/>
<stop offset="1" stop-color="#0053A0"/>
</linearGradient>
<linearGradient id="paint6_linear_1485_2704" x1="5.38943" y1="28.4773" x2="8.56294" y2="38.9398" gradientUnits="userSpaceOnUse">
<stop stop-color="#00BF63" stop-opacity="0.8"/>
<stop offset="1" stop-color="#0053A0"/>
</linearGradient>
<clipPath id="clip0_1485_2704">
<rect width="110" height="46" fill="white"/>
</clipPath>
</defs>
</svg>
